# xmcd CD database file
#
# Track frame offsets:
#	150
#	26037
#	52441
#	64304
#	88264
#	108685
#	129230
#	144920
#	161096
#	186738
#	208220
#	227523
#
# Disc length: 3225 seconds
#
# Revision: 0
# Processed by: cddbd v1.5.2PL0 Copyright (c) Steve Scherf et al.
# Submitted via: CDex 1.51
#
DISCID=bd0c970c
DTITLE=Roberto Bossard - The Trio
DYEAR=2005
DGENRE=Jazz
TTITLE0=Mixed Message
TTITLE1=9th Avenue
TTITLE2=Tribute
TTITLE3=Golden Earrings
TTITLE4=Stablemates
TTITLE5=Sud Ouest Jump
TTITLE6=Hope
TTITLE7=Crosscourt
TTITLE8=I've Grown Accustomed To Her Face
TTITLE9=Pensativa
TTITLE10=Backup
TTITLE11=Mirrorland
EXTD=YEAR: 2005
EXTT0=
EXTT1=
EXTT2=
EXTT3=
EXTT4=
EXTT5=
EXTT6=
EXTT7=
EXTT8=
EXTT9=
EXTT10=
EXTT11=
PLAYORDER=
